<?xml version="1.0" standalone="no"?>
<!DOCTYPE svg PUBLIC "-//W3C//DTD SVG 20010904//EN"
 "http://www.w3.org/TR/2001/REC-SVG-20010904/DTD/svg10.dtd">
<svg version="1.0" xmlns="http://www.w3.org/2000/svg"
 width="1200.000000pt" height="1200.000000pt" viewBox="0 0 1200.000000 1200.000000"
 preserveAspectRatio="xMidYMid meet">
<metadata>
Created by potrace 1.11, written by Peter Selinger 2001-2013
</metadata>
<g transform="translate(0.000000,1200.000000) scale(0.100000,-0.100000)"
fill="#000000" stroke="none">
<path d="M2209 11996 c-2 -2 -37 -7 -77 -10 -40 -4 -78 -9 -85 -11 -7 -2 -30
-6 -52 -9 -111 -15 -294 -65 -445 -122 -119 -44 -323 -143 -381 -185 -15 -10
-30 -19 -33 -19 -3 0 -45 -28 -93 -62 -419 -295 -719 -680 -895 -1147 -47
-124 -97 -312 -113 -421 -3 -19 -7 -44 -10 -55 -2 -11 -8 -49 -12 -85 -10 -83
-11 -7642 0 -7730 9 -85 16 -126 27 -180 5 -25 12 -59 15 -76 10 -63 78 -282
117 -379 126 -308 302 -570 544 -810 100 -100 130 -126 189 -170 22 -17 42
-32 45 -35 11 -12 88 -67 130 -94 339 -218 676 -339 1065 -384 81 -9 7622 -9
7710 0 64 7 120 16 215 33 172 31 415 116 605 211 118 59 350 204 400 251 11
10 42 36 70 58 145 117 335 330 457 515 210 316 337 663 385 1052 10 81 10
7642 0 7728 -13 113 -18 142 -48 270 -16 69 -31 135 -34 147 -14 61 -102 280
-155 388 -333 675 -1006 1179 -1735 1299 -49 8 -106 19 -125 23 -34 7 -7673
17 -7681 9z m116 -3243 c323 -10 1427 -10 1660 0 188 8 231 10 253 8 19 -1 52
-80 52 -123 0 -21 -7 -55 -16 -77 -15 -37 -17 -39 -72 -45 -135 -15 -269 -44
-316 -68 -23 -11 -54 -32 -69 -47 -54 -49 -99 -164 -113 -286 -3 -33 -8 -69
-10 -80 -13 -69 -17 -513 -19 -2255 -2 -1075 -6 -1989 -8 -2030 -5 -76 -13
-183 -22 -300 -5 -58 -8 -82 -20 -170 -2 -14 -7 -50 -10 -80 -4 -30 -8 -57
-10 -60 -2 -3 -6 -26 -10 -50 -3 -25 -10 -61 -15 -80 -5 -19 -11 -46 -14 -60
-2 -14 -5 -25 -6 -25 -1 0 -4 -11 -6 -25 -2 -13 -18 -65 -36 -115 -143 -419
-464 -816 -832 -1029 -301 -175 -636 -263 -1011 -267 -233 -2 -373 47 -439
155 -26 41 -30 58 -30 119 0 143 78 319 187 421 123 114 269 109 477 -18 38
-22 101 -60 140 -84 162 -99 269 -136 345 -120 88 19 162 138 215 342 30 116
32 132 49 261 12 96 18 155 26 255 3 41 8 98 10 125 7 79 14 191 21 320 3 66
7 143 9 170 24 366 25 4460 1 4592 -2 10 -7 43 -11 73 -7 57 -21 124 -32 150
-4 8 -7 17 -8 20 -21 62 -83 129 -145 158 -42 19 -202 55 -295 66 -74 9 -150
19 -165 22 -8 1 -24 3 -35 3 -33 1 -57 53 -54 119 4 96 32 131 102 125 18 -1
145 -6 282 -10z m5210 3 c181 -8 260 -13 325 -20 25 -3 72 -8 105 -11 33 -3
71 -8 85 -10 14 -2 52 -6 85 -10 72 -8 356 -60 403 -74 17 -5 32 -8 32 -6 0 2
18 -2 40 -10 22 -8 40 -12 40 -10 0 2 18 -2 40 -10 22 -8 41 -14 43 -14 14 4
312 -92 421 -136 850 -343 1427 -1042 1591 -1930 13 -71 26 -155 29 -185 17
-173 19 -218 20 -345 0 -130 -9 -313 -18 -360 -2 -11 -6 -42 -10 -70 -4 -27
-13 -84 -22 -125 -8 -41 -16 -86 -19 -99 -8 -44 -56 -205 -85 -286 -181 -509
-497 -930 -940 -1257 -388 -285 -841 -469 -1415 -572 -16 -3 -41 -8 -55 -10
-14 -3 -41 -7 -60 -10 -132 -18 -203 -26 -260 -31 -35 -3 -76 -7 -90 -10 -122
-19 -836 -27 -1090 -12 -130 8 -188 11 -355 22 -210 13 -277 15 -505 15 -322
-1 -920 -16 -928 -25 -2 -2 -16 1 -31 6 -46 16 -71 96 -52 166 16 58 31 72 81
78 45 5 172 23 220 30 14 3 43 7 65 11 172 27 260 123 291 318 3 21 7 47 9 58
2 10 8 61 12 111 10 114 11 3984 1 4087 -22 228 -61 316 -166 369 -57 29 -237
59 -390 64 -21 1 -52 52 -56 94 -4 42 14 108 36 129 12 12 45 16 223 29 236
16 339 22 515 30 74 3 171 8 215 10 44 2 208 7 365 10 157 4 286 7 287 8 5 5
832 -1 968 -7z"/>
<path d="M7090 8427 c-3 -3 -39 -7 -80 -11 -41 -3 -86 -8 -100 -11 -13 -2 -42
-7 -65 -10 -69 -10 -158 -36 -211 -61 -74 -35 -90 -77 -101 -269 -9 -160 -9
-3602 0 -3730 9 -124 15 -171 32 -260 20 -102 21 -104 45 -170 98 -262 290
-389 655 -431 141 -16 471 -5 630 21 601 98 1039 370 1342 832 233 354 371
813 408 1355 5 74 6 420 1 498 -4 73 -16 202 -21 240 -2 14 -7 50 -11 80 -4
30 -8 57 -9 60 -1 3 -5 25 -9 50 -4 25 -17 81 -27 125 -11 44 -22 87 -23 95
-2 8 -12 42 -22 75 -10 33 -19 65 -20 71 -1 7 -23 65 -49 130 -51 126 -129
282 -176 351 -16 23 -29 44 -29 48 0 3 -5 11 -10 18 -6 7 -29 37 -52 67 -86
117 -170 207 -293 314 -65 57 -182 146 -191 146 -3 0 -24 13 -47 28 -162 111
-491 241 -728 287 -91 18 -193 35 -244 40 -33 4 -71 9 -85 12 -32 6 -504 15
-510 10z"/>
</g>
</svg>
