<svg version="1" xmlns="http://www.w3.org/2000/svg" width="933.333" height="933.333" viewBox="0 0 700.000000 700.000000"><path d="M.6 101.9c-.2.5 23.4 55.5 35.3 82.1 1.1 2.5 6.6 15.1 12.2 28 10.9 25.4 33.2 76.6 43.4 100 23.7 54.4 100.3 230.7 102.5 236 1.5 3.6 3.7 8.5 4.8 11 1.2 2.5 5.3 11.9 9.2 21 3.9 9.1 7.6 16.9 8.1 17.5.5.5 4.2 1 8.1 1l7.1.1 2.4-5.5c1.4-3.1 3.4-7.6 4.5-10.1s2.5-5.9 3.3-7.5c.7-1.7 4.2-9.8 7.8-18 3.6-8.3 12-27.6 18.7-43 6.7-15.4 16.7-38.4 22.2-51 5.5-12.7 10.8-24.8 11.8-27 1-2.2 4.1-9.2 6.8-15.5 21.8-50.1 32.7-75.1 34.2-78.5 1-2.2 3-6.7 4.4-9.9 1.5-3.3 2.8-5.7 3-5.5.2.2 2.9 6.5 6.1 13.9 3.1 7.4 6.8 16 8.2 19 1.4 3 4.4 10 6.8 15.5 2.3 5.5 12.9 29.8 23.5 54 20.7 47.5 32 73.3 51 117 6.7 15.4 13.2 30.2 14.4 33 1.3 2.7 3.5 8 5.1 11.7 1.5 3.8 3.1 6.8 3.4 6.9.3.1 3.8.2 7.8.3 6.8.2 7.2 0 8.3-2.4.7-1.4 5-11.3 9.7-22 4.7-10.7 10-22.9 11.8-27 1.8-4.1 15.3-35.2 30-69 31.8-73.3 29.4-67.8 31.1-71.5.8-1.7 6.8-15.6 13.5-31 6.6-15.4 12.7-29.4 13.4-31 .8-1.7 5.3-12 10-23 4.8-11 9.3-21.4 10-23 .8-1.7 11.8-27.1 24.6-56.5 12.7-29.4 24-55.3 25-57.5 1-2.2 7-16.2 13.4-31 6.4-14.9 12.2-28.4 13-30 3.2-7.2 9.3-21.5 9.2-21.6-.1-.1-3.5-.2-7.6-.3l-7.4-.2-2.4 5.5c-1.4 3.1-3.1 6.9-3.8 8.6-3.6 7.9-29.5 67.7-29.5 68.1 0 .2-1.6 3.9-3.6 8.1-1.9 4.3-3.9 8.7-4.4 9.8-.5 1.1-13.1 30.1-28 64.5s-28.4 65.3-30 68.8c-1.7 3.5-3 6.5-3 6.8 0 .2-.9 2.3-1.9 4.7-1.1 2.3-8.7 19.7-16.9 38.7-8.3 19-29.4 67.6-47 108-17.6 40.4-33.3 76.5-34.8 80.2-1.6 3.7-3.1 6.8-3.4 6.8-.3 0-3.7-7.5-7.7-16.8-7.1-16.3-22.1-50.7-24.8-56.7-2.4-5.2-36.5-83.5-41.7-95.5-2.7-6.3-5.6-13-6.4-14.7-.8-1.8-9.8-22.3-19.9-45.5L357 308.6l11.2-25.5c6.1-14.1 12.1-27.9 13.4-30.6 3.2-7.1 31.4-71.5 32.5-74.3.5-1.2 1.7-4.2 2.8-6.6 1.1-2.4 8.1-18.1 15.5-35 10.5-24 13-30.6 11.7-30.7-1.9-.1-11.1-.1-12.7 0-.7.1-3.4 5.4-6.2 11.8-8.8 20.3-22.8 52.6-25 57.3-1.1 2.5-12.9 29.5-26.2 60-13.3 30.5-24.3 55.6-24.5 55.8-.5.5-10.9-23.2-48.7-111.3-6.6-15.4-13.3-30.7-14.7-34-1.5-3.3-6-13.7-10-23l-7.3-17h-7.4c-4.1 0-7.4.4-7.4.8 0 .8 31.7 73.7 37.2 85.7 1.1 2.5 4.5 10.1 7.5 17s6.1 13.8 6.8 15.5c.8 1.6 6.2 14 12.1 27.5 5.9 13.5 13.8 31.6 17.5 40.2 3.8 8.6 6.9 16 6.9 16.4 0 .5-8.3 20.1-14.2 33.4-1.1 2.5-2.6 5.8-3.3 7.5-16.1 36.8-20.4 46.6-24 55-2.4 5.5-5.4 12.5-6.8 15.5-1.3 3-5.9 13.6-10.2 23.5-4.2 9.9-8.5 19.8-9.5 22-3.9 8.6-20 45.7-20 46 0 .2-1.5 3.6-3.4 7.7-1.9 4-6.9 15.4-11.1 25.3-4.3 9.9-8.6 19.8-9.5 22-1 2.2-2.8 6.2-4 9-1.6 3.7-2.3 4.6-3 3.5-.7-1.4-56.7-130.1-87.2-200.5-14.1-32.6-14.6-33.8-17.6-40.5-1.1-2.5-7.2-16.7-13.7-31.5-6.4-14.9-12.2-28.4-13-30-.7-1.7-9.7-22.1-19.8-45.5-10.2-23.4-19.2-44.1-20-46-2.8-6.3-5.3-12.2-14.5-33.5-5-11.6-11.9-27.5-15.4-35.5l-6.4-14.5H8.1c-4-.1-7.4.1-7.5.4z"/><path d="M148.9 127c-2.1.4-2.4 1.1-2.5 5.2-.1 4.2.1 4.8 2 4.9 1.1 0 4.1.1 6.6.2l4.5.2v97l-3 .2c-1.6 0-4.6.2-6.6.2l-3.5.1.1 4.7.1 4.8h36.9l.3-4.7.3-4.7-6.8-.3-6.8-.3v-97l6.7-.3 6.8-.3-.1-4.9c-.1-2.8-.4-5-.8-5-6.1-.4-32.4-.4-34.2 0zM466.4 126.8c-1.8.3-2.1 1-2.1 5.2-.1 4.9 0 5 3.1 5.1 1.7 0 4.8.1 7 .2l3.8.2v47c0 25.8-.1 47.8-.1 48.7-.1 1.5-1.1 1.8-7 1.8h-6.8v9.8h17.1c9.4 0 17.8-.1 18.6-.4 1.1-.3 1.5-1.7 1.5-4.9 0-4.9.2-4.9-8.2-4.5l-4.3.1-.2-44c-.3-40.6-.2-43.9 1.3-42.3.9.9 11.9 13.2 24.5 27.2 12.5 14 24.4 27.3 26.5 29.5 2 2.2 8.3 9.2 14 15.5 22.3 24.8 25.3 28 25.8 28 .3 0 .6-25.1.6-55.7v-55.8l3.5-.2c1.9-.1 5.1-.2 7.1-.2l3.6-.1v-10l-3.6-.1c-4.5-.1-27.7-.1-31.1 0-2.4.1-2.6.5-2.6 5.1l-.1 5 4.1.1c2.2.1 5.1 0 6.3-.1l2.2-.1v44.8c0 39.9-.2 44.6-1.5 42.8-1.7-2.3-8.1-9.8-11.5-13.6-1.3-1.4-5.5-6.1-9.4-10.4-3.8-4.3-7.4-8.3-8-8.9-.5-.6-3.9-4.5-7.5-8.6s-6.7-7.7-7-8c-.3-.3-3.9-4.3-8-9-7.4-8.4-12.6-14.2-16.5-18.6-2.6-2.9-13.4-15-16-18-1.7-2-3.1-2.3-9.5-2.6-4.1-.2-8.4-.2-9.6 0z"/></svg>