<svg id="Layer_1" data-name="Layer 1" xmlns="http://www.w3.org/2000/svg" viewBox="0 0 90.75 90.75"><title>Logo Square</title><path d="M32.85,13.7h2L45.28,37.84,55.81,13.7h2L46.28,40l15.43,35.3L88.76,13.16h2l-28,64.43h-2L45.38,42.29,30,77.59H28L0,13.16H2L29,75.32,44.38,40Z"/><path d="M19,30.44h1.71V17.79H19V16.43h4.83v1.36H22.09V30.44h1.77v1.29H19Z"/><path d="M60.19,30.44H62V17.79H60.19V16.43h2.44l11,12.41.41.57L74,28.72V17.79H72.4V16.43h4.83v1.36H75.37V32.43L63.73,19.52l-.4-.55.05.68V30.44H65v1.29H60.19Z"/></svg>