<svg id="Layer_1" data-name="Layer 1" xmlns="http://www.w3.org/2000/svg" viewBox="0 0 510.47 72"><title>LogoType</title><path d="M0,49.75H5.62V8.06H0V3.6H15.91V8.06H10.08V49.75h5.83V54H0Z"/><path d="M41.54,49.75h5.62V36.27a6,6,0,0,0-1.55-3.66,5.84,5.84,0,0,0-4.28-1.72,10.68,10.68,0,0,0-3.93.72,11.39,11.39,0,0,0-3.27,1.93,8.93,8.93,0,0,0-2.27,2.91A8.26,8.26,0,0,0,31,40.14v9.61h5V54H21V49.75h5.55V31.39h-5V27h8.78l.08,1.58q.06,1.52.18,2.7t.18,2.7a11.67,11.67,0,0,1,4.64-5.5,13,13,0,0,1,7.16-2.06,9.07,9.07,0,0,1,6.48,2.24,8,8,0,0,1,2.52,5.83V49.75h4.9V54h-15Z"/><path d="M66.6,46v3.18a6.25,6.25,0,0,0,2.32.78,22.72,22.72,0,0,0,2.61.14,6,6,0,0,0,1-.14A4.64,4.64,0,0,0,74,49.4a4.57,4.57,0,0,0,1.27-1.14,3.51,3.51,0,0,0,.62-1.93,2.88,2.88,0,0,0-.84-2.39,7.23,7.23,0,0,0-2.28-1.36c-.92-.35-1.92-.69-3-1a13.89,13.89,0,0,1-3-1.26,6.79,6.79,0,0,1-2.36-2.2,6.89,6.89,0,0,1-.94-3.85,7.4,7.4,0,0,1,.79-3.56,7.25,7.25,0,0,1,2-2.41,8.11,8.11,0,0,1,2.66-1.37,9.45,9.45,0,0,1,2.74-.43,14.46,14.46,0,0,1,1.47.1,16.56,16.56,0,0,1,2.09.4,10.89,10.89,0,0,1,2.2.83,6.5,6.5,0,0,1,1.87,1.4V35h-4V31.72a4.7,4.7,0,0,0-1.86-.62A13.8,13.8,0,0,0,71.82,31a4.82,4.82,0,0,0-2.87.85,2.69,2.69,0,0,0-1.06,2.61A2.65,2.65,0,0,0,69,36.33a12,12,0,0,0,2.35,1.27c.92.37,1.89.75,2.93,1.14a12.3,12.3,0,0,1,2.9,1.51,8.06,8.06,0,0,1,2.24,2.37,6.76,6.76,0,0,1,.91,3.68,8.86,8.86,0,0,1-.43,2.52,8.36,8.36,0,0,1-1.44,2.73,7.7,7.7,0,0,1-2.74,2.16,9.72,9.72,0,0,1-4.39.87,18.4,18.4,0,0,1-2.23-.15A15.1,15.1,0,0,1,66.71,54a13.13,13.13,0,0,1-2.31-.86,5.92,5.92,0,0,1-1.83-1.33V46Z"/><path d="M85.1,49.75h5.33V31.46H85.1V27h9.79V49.75h5.19V54h-15ZM89.64,17a2.87,2.87,0,0,1,.93-2.17A3.08,3.08,0,0,1,92.73,14a2.89,2.89,0,0,1,2.06.89,2.92,2.92,0,0,1,.9,2.17,2.8,2.8,0,0,1-.9,2.17,3,3,0,0,1-2.06.82,3.24,3.24,0,0,1-2.16-.82A2.76,2.76,0,0,1,89.64,17Z"/><path d="M129.74,51.84V49.46a5.25,5.25,0,0,1-1.11,1.59,10.53,10.53,0,0,1-2.16,1.65,14,14,0,0,1-3.1,1.34,13.36,13.36,0,0,1-3.92.54,14.44,14.44,0,0,1-5.66-1.12,13.73,13.73,0,0,1-4.53-3.06,15.11,15.11,0,0,1-3-4.5,13.86,13.86,0,0,1,0-10.87,14.86,14.86,0,0,1,3-4.5,13.73,13.73,0,0,1,4.53-3.06,14.26,14.26,0,0,1,5.66-1.12,12.25,12.25,0,0,1,3.67.54,14.09,14.09,0,0,1,3.09,1.37A11,11,0,0,1,128.48,30a7.31,7.31,0,0,1,1.26,1.66c-.09-.67-.18-1.34-.25-2s-.16-1.37-.25-2.08V4.46h-4.9V0h9.36V49.75h5.4V54h-9.36ZM109.58,40.46a9.46,9.46,0,0,0,.76,3.83,9.37,9.37,0,0,0,5.17,5.07,10.52,10.52,0,0,0,7.8,0,9.37,9.37,0,0,0,5.17-5.07,9.9,9.9,0,0,0,0-7.61,9.57,9.57,0,0,0-2.06-3.08,9.69,9.69,0,0,0-3.11-2,10.52,10.52,0,0,0-7.8,0,9.69,9.69,0,0,0-3.11,2,9.73,9.73,0,0,0-2.82,6.86Z"/><path d="M170.93,37.44l-21,8a9.25,9.25,0,0,0,3.42,3.41,9.82,9.82,0,0,0,5,1.27,9.32,9.32,0,0,0,3.63-.7A9.13,9.13,0,0,0,165,47.52l1.33,1.62q.69.82,1.41,1.62a14.09,14.09,0,0,1-4.22,2.81,12.71,12.71,0,0,1-5.07,1,14,14,0,0,1-5.55-1.12,14.67,14.67,0,0,1-4.53-3A14,14,0,0,1,145.26,46a14,14,0,0,1,0-11,13.81,13.81,0,0,1,3.06-4.5,14.67,14.67,0,0,1,4.53-3,13.8,13.8,0,0,1,5.55-1.12,10.86,10.86,0,0,1,4.21.83,12.47,12.47,0,0,1,3.6,2.3A15.33,15.33,0,0,1,169.05,33,18,18,0,0,1,170.93,37.44Zm-12.59-6.62A9.82,9.82,0,0,0,151,34a9.63,9.63,0,0,0-2,3.29,8.91,8.91,0,0,0-.43,3.93c2.76-1,5.51-2.1,8.28-3.13s5.52-2.07,8.28-3.13a8.78,8.78,0,0,0-2.87-3A7.2,7.2,0,0,0,158.34,30.82Z"/><path d="M197.85,3.6h15.91V8.06H208.4q3.9,9,7.74,18t7.74,18l.65,2.23a102.31,102.31,0,0,1,5.22-13.65q3.13-6.72,5.94-13.42c-.82-1.85-1.63-3.71-2.45-5.58s-1.63-3.76-2.45-5.66h-6.3V3.6H240.4V8.06h-5.14q3.9,9,7.7,18t7.77,18l.65,2.23.66-2.23q3.92-9,7.73-18t7.67-18.08h-4.72V3.6h15.84V8.06H271.9L261.61,32.18q-5.12,12-10.23,24.12l-12.74-30-.72-2.23c-.82,2.69-1.76,5.39-2.84,8.1s-2.22,5.42-3.42,8.13-2.42,5.42-3.64,8.1-2.39,5.33-3.49,7.92q-5.19-12.12-10.3-24.12L203.94,8.06h-6.09Z"/><path d="M299.52,37.44l-21,8A9.25,9.25,0,0,0,282,48.84a9.82,9.82,0,0,0,5,1.27,9.32,9.32,0,0,0,3.63-.7,9.13,9.13,0,0,0,2.92-1.89l1.33,1.62q.69.82,1.41,1.62a14.09,14.09,0,0,1-4.22,2.81,12.71,12.71,0,0,1-5.07,1,14,14,0,0,1-5.55-1.12,14.67,14.67,0,0,1-4.53-3A14,14,0,0,1,273.85,46a14,14,0,0,1,0-11,13.81,13.81,0,0,1,3.06-4.5,14.67,14.67,0,0,1,4.53-3A13.8,13.8,0,0,1,287,26.35a10.83,10.83,0,0,1,4.21.83,12.47,12.47,0,0,1,3.6,2.3A15.33,15.33,0,0,1,297.64,33,18,18,0,0,1,299.52,37.44Zm-12.59-6.62A9.82,9.82,0,0,0,279.59,34a9.63,9.63,0,0,0-2,3.29,8.91,8.91,0,0,0-.43,3.93c2.76-1,5.52-2.1,8.28-3.13S291,36,293.76,34.92a8.78,8.78,0,0,0-2.87-3A7.2,7.2,0,0,0,286.93,30.82Z"/><path d="M304.77,49.75h5.4V4.46h-4.89V0h9.36V49.75h5.11V54h-15Z"/><path d="M324.79,49.75h5.4V4.46h-4.9V0h9.36V49.75h5.11V54h-15Z"/><path d="M344.8,49.75h5.4V4.46h-4.89V0h9.36V28.8c-.1.53-.18,1-.25,1.48s-.16.92-.26,1.4A5.33,5.33,0,0,1,355.39,30a12.08,12.08,0,0,1,2.3-1.76,14.18,14.18,0,0,1,3.1-1.37,12.48,12.48,0,0,1,3.74-.54,14,14,0,0,1,5.62,1.12,13.81,13.81,0,0,1,4.5,3.06,14.65,14.65,0,0,1,3,4.5,13.75,13.75,0,0,1,0,10.87,14.89,14.89,0,0,1-3,4.5,13.81,13.81,0,0,1-4.5,3.06,14.13,14.13,0,0,1-5.62,1.12,13.32,13.32,0,0,1-3.92-.54,14,14,0,0,1-3.1-1.34,10.78,10.78,0,0,1-2.19-1.65,5,5,0,0,1-1.16-1.59V54H344.8Zm29.52-9.29a10,10,0,0,0-.72-3.78,9.16,9.16,0,0,0-2-3.08,9.8,9.8,0,0,0-3.11-2,10.11,10.11,0,0,0-3.9-.75,10.3,10.3,0,0,0-4,.75,9.6,9.6,0,0,0,0,17.79,10.3,10.3,0,0,0,4,.75,10.11,10.11,0,0,0,3.9-.75,9.8,9.8,0,0,0,3.11-2,9.19,9.19,0,0,0,2-3A10,10,0,0,0,374.32,40.46Z"/><path d="M410.61,37.44l-20.95,8a9.1,9.1,0,0,0,3.42,3.41,9.76,9.76,0,0,0,5,1.27,9.37,9.37,0,0,0,3.64-.7,9,9,0,0,0,2.91-1.89L406,49.14c.45.55.92,1.09,1.4,1.62a14,14,0,0,1-4.21,2.81,12.73,12.73,0,0,1-5.08,1,13.92,13.92,0,0,1-5.54-1.12,14.71,14.71,0,0,1-4.54-3A14.34,14.34,0,0,1,384.94,46a14.13,14.13,0,0,1,0-11,14.13,14.13,0,0,1,3.06-4.5,14.71,14.71,0,0,1,4.54-3,13.75,13.75,0,0,1,5.54-1.12,10.83,10.83,0,0,1,4.21.83,12.47,12.47,0,0,1,3.6,2.3A15.63,15.63,0,0,1,408.74,33,17.93,17.93,0,0,1,410.61,37.44ZM398,30.82A9.78,9.78,0,0,0,390.69,34a9.48,9.48,0,0,0-2,3.29,8.92,8.92,0,0,0-.44,3.93c2.76-1,5.52-2.1,8.28-3.13s5.52-2.07,8.28-3.13A8.68,8.68,0,0,0,402,32,7.17,7.17,0,0,0,398,30.82Z"/><path d="M415.87,49.75h5.32V31.46h-5.32V27h9.79V49.75h5.18V54h-15ZM420.4,17a2.85,2.85,0,0,1,.94-2.17A3,3,0,0,1,423.5,14a2.85,2.85,0,0,1,2.05.89,2.92,2.92,0,0,1,.9,2.17,2.8,2.8,0,0,1-.9,2.17,3,3,0,0,1-2.05.82,3.2,3.2,0,0,1-2.16-.82A2.73,2.73,0,0,1,420.4,17Z"/><path d="M456.4,49.75H462V36.27a6,6,0,0,0-1.55-3.66,5.84,5.84,0,0,0-4.28-1.72,10.68,10.68,0,0,0-3.93.72A11.39,11.39,0,0,0,449,33.54a8.93,8.93,0,0,0-2.27,2.91,8.26,8.26,0,0,0-.83,3.69v9.61h5V54h-15V49.75h5.55V31.39h-5V27h8.78l.07,1.58q.07,1.52.18,2.7t.18,2.7a11.75,11.75,0,0,1,4.65-5.5,13,13,0,0,1,7.16-2.06A9.07,9.07,0,0,1,464,28.66a8,8,0,0,1,2.52,5.83V49.75h4.9V54h-15Z"/><path d="M501.33,27h9.14v4.46H505v26a15.47,15.47,0,0,1-1.08,5.88,14,14,0,0,1-3,4.59,13.51,13.51,0,0,1-4.46,3A13.86,13.86,0,0,1,491,72a17.22,17.22,0,0,1-6.22-1.3,18.09,18.09,0,0,1-5.08-3l3-3.6a12.54,12.54,0,0,0,3.67,2.48,10.79,10.79,0,0,0,4.47,1,9.12,9.12,0,0,0,3.78-.8,9.22,9.22,0,0,0,3.06-2.22,10.6,10.6,0,0,0,2-3.33,11.44,11.44,0,0,0,.76-4.25V51.86a9.78,9.78,0,0,0,.21-1.16,9.12,9.12,0,0,1,.22-1.16,7.92,7.92,0,0,1-1.33,1.69,9.72,9.72,0,0,1-2.2,1.62,13.65,13.65,0,0,1-6.69,1.65,14.39,14.39,0,0,1-5.66-1.11,14.13,14.13,0,0,1-4.53-3,14.61,14.61,0,0,1-3-4.42,13.25,13.25,0,0,1-1.11-5.4,13.5,13.5,0,0,1,1.11-5.44,15.11,15.11,0,0,1,3-4.5,14.31,14.31,0,0,1,4.53-3.1,14.07,14.07,0,0,1,5.66-1.15,12,12,0,0,1,3.78.58,13.67,13.67,0,0,1,3.13,1.44,11.31,11.31,0,0,1,2.26,1.8A4.36,4.36,0,0,1,501,31.82c0-.76,0-1.56.11-2.37S501.28,27.82,501.33,27ZM480.88,40.43a9.43,9.43,0,0,0,.76,3.81,9.42,9.42,0,0,0,5.17,5,10.52,10.52,0,0,0,7.8,0,9.52,9.52,0,0,0,3.11-2,9.56,9.56,0,0,0-3.11-15.7,10.65,10.65,0,0,0-7.8,0,9.32,9.32,0,0,0-5.17,5.09A9.49,9.49,0,0,0,480.88,40.43Z"/></svg>